<?xml version="1.0" encoding="UTF-8" standalone="no"?>
<svg
   xmlns:dc="http://purl.org/dc/elements/1.1/"
   xmlns:cc="http://creativecommons.org/ns#"
   xmlns:rdf="http://www.w3.org/1999/02/22-rdf-syntax-ns#"
   xmlns:svg="http://www.w3.org/2000/svg"
   xmlns="http://www.w3.org/2000/svg"
   xmlns:sodipodi="http://sodipodi.sourceforge.net/DTD/sodipodi-0.dtd"
   xmlns:inkscape="http://www.inkscape.org/namespaces/inkscape"
   version="1.0"
   width="329"
   height="110"
   viewBox="0 0 3290 1100"
   preserveAspectRatio="xMidYMid meet"
   id="svg42"
   sodipodi:docname="Los_Angeles_Lakers_Wordmark_Logo_2001-current.svg"
   inkscape:version="0.92.5 (2060ec1f9f, 2020-04-08)">
  <metadata
     id="metadata48">
    <rdf:RDF>
      <cc:Work
         rdf:about="">
        <dc:format>image/svg+xml</dc:format>
        <dc:type
           rdf:resource="http://purl.org/dc/dcmitype/StillImage" />
        <dc:title></dc:title>
      </cc:Work>
    </rdf:RDF>
  </metadata>
  <defs
     id="defs46" />
  <sodipodi:namedview
     pagecolor="#ffffff"
     bordercolor="#666666"
     borderopacity="1"
     objecttolerance="10"
     gridtolerance="10"
     guidetolerance="10"
     inkscape:pageopacity="0"
     inkscape:pageshadow="2"
     inkscape:window-width="1920"
     inkscape:window-height="1017"
     id="namedview44"
     showgrid="false"
     inkscape:zoom="2.6733577"
     inkscape:cx="243.00934"
     inkscape:cy="141.20148"
     inkscape:window-x="-8"
     inkscape:window-y="-8"
     inkscape:window-maximized="1"
     inkscape:current-layer="svg42" />
  <g
     id="layer101"
     transform="matrix(0.29927885,0,0,0.29927885,0,13.6178)"
     style="fill:#542d84;stroke:none">
    <path
       d="m 0,3622 c 0,-4 4,-12 10,-18 5,-5 52,-104 104,-219 l 95,-210 92,-7 c 109,-9 183,-29 261,-70 64,-34 151,-120 190,-188 14,-25 257,-547 538,-1160 366,-795 513,-1125 514,-1151 1,-46 -23,-74 -84,-102 -37,-17 -71,-22 -187,-25 -79,-2 -143,-6 -143,-9 0,-3 53,-108 118,-234 L 1625,0 h 827 828 l -117,234 -117,234 -80,4 c -65,3 -94,11 -146,36 -75,36 -157,105 -200,167 -34,49 -910,1898 -910,1921 0,56 155,-80 299,-261 48,-60 348,-462 666,-892 l 578,-783 h 269 268 v 966 c 0,890 1,965 16,962 9,-2 25,-14 35,-28 10,-14 130,-331 266,-705 215,-593 247,-688 247,-740 l 1,-60 -88,-3 c -65,-2 -87,-6 -85,-16 2,-7 32,-94 68,-194 l 65,-182 h 2365 c 2586,0 2412,-4 2536,57 90,44 204,186 204,256 0,31 24,17 70,-43 84,-110 218,-206 364,-259 130,-47 224,-62 376,-62 255,0 413,36 612,138 l 107,55 -25,67 c -14,36 -64,171 -111,299 l -87,232 h -186 -186 l 4,-99 c 7,-159 -22,-229 -110,-266 -46,-19 -78,-19 -146,-2 -107,28 -172,97 -172,184 0,92 58,143 225,199 343,115 500,257 552,497 22,104 13,274 -21,390 -14,48 -26,89 -26,92 0,3 68,5 150,5 93,0 150,4 150,10 0,6 -4,10 -8,10 -5,0 -14,30 -21,67 -8,38 -28,114 -47,170 -146,451 -456,736 -909,834 -118,26 -378,36 -500,20 -348,-46 -612,-208 -799,-489 -116,-173 -175,-335 -221,-597 -29,-162 -47,-227 -74,-272 -21,-34 -95,-93 -116,-93 -7,0 -47,92 -89,204 -64,173 -76,214 -76,265 0,57 2,62 26,71 14,6 59,10 100,10 67,0 75,2 70,18 -3,9 -37,96 -75,192 l -68,175 -2576,5 c -1416,3 -2578,7 -2581,10 -9,9 -266,574 -272,598 l -6,22 H 1359 C 612,3630 0,3626 0,3622 Z M 2935,2592 c 74,-34 140,-104 160,-169 l 6,-23 h -288 c -287,1 -288,1 -304,23 -57,78 -69,102 -69,138 0,54 19,59 250,56 179,-2 199,-4 245,-25 z m 1892,7 c 36,-13 43,-25 43,-73 0,-53 -91,-346 -108,-346 -7,0 -46,26 -87,57 l -73,57 -41,111 c -70,189 -61,205 121,205 64,0 129,-5 145,-11 z m 2507,-3 c 18,-8 45,-29 59,-48 27,-35 547,-1430 547,-1467 0,-26 -18,-31 -110,-31 h -78 l -26,68 c -14,37 -43,114 -65,172 l -39,105 -180,3 -179,2 -5,-97 c -3,-69 -11,-112 -26,-145 -31,-71 -53,-78 -230,-78 h -148 l -72,203 c -40,111 -72,205 -72,210 0,4 104,7 230,7 127,0 230,3 230,8 0,4 -50,143 -111,310 l -112,302 h -122 -122 l -24,-52 c -13,-28 -32,-62 -42,-75 -20,-26 -76,-58 -84,-49 -11,11 -223,597 -223,616 0,19 7,20 104,20 131,0 205,-22 310,-90 89,-58 160,-122 213,-191 l 37,-49 h 193 c 106,0 193,2 193,4 0,2 -27,78 -60,169 -33,90 -60,169 -60,175 0,16 33,15 74,-2 z m -1643,-38 c 12,-13 28,-39 36,-58 33,-75 501,-1347 508,-1377 5,-28 4,-33 -12,-33 -28,0 -55,19 -486,337 -221,163 -403,298 -405,299 -5,3 222,687 246,744 20,47 67,110 82,110 5,0 19,-10 31,-22 z m 4254,-47 c 34,-15 77,-43 98,-60 52,-46 90,-129 91,-199 1,-107 -46,-149 -245,-218 -259,-90 -395,-180 -487,-323 -34,-52 -55,-107 -76,-203 -4,-16 -10,-28 -14,-28 -4,0 -20,21 -37,48 -74,117 -284,292 -433,361 -28,14 -52,31 -52,38 0,8 13,33 29,56 36,54 75,129 122,242 21,49 41,91 46,92 4,2 46,-87 92,-197 l 84,-200 h 143 144 v 138 c 1,297 73,438 247,482 66,16 180,3 248,-29 z M 3130,1873 c 0,-21 3,-89 7,-150 5,-96 4,-113 -9,-113 -13,0 -228,277 -228,294 0,3 52,6 115,6 h 115 z m 5388,-330 c 71,-35 167,-124 209,-194 61,-102 78,-235 33,-259 -16,-9 -150,-15 -150,-7 0,2 -38,106 -85,233 -47,126 -85,235 -85,242 0,18 15,15 78,-15 z M 5183,1279 c 142,-110 256,-206 254,-212 -6,-20 -279,-21 -316,-3 -58,31 -108,112 -172,283 -39,103 -46,133 -31,133 4,0 123,-90 265,-201 z"
       id="path30"
       inkscape:connector-curvature="0" />
  </g>
  <g
     id="layer102"
     transform="matrix(0.29927885,0,0,0.29927885,0,13.6178)"
     style="fill:#f4ab3a;stroke:none">
    <path
       d="m 0,3622 c 0,-4 4,-12 10,-18 5,-5 52,-104 104,-219 l 95,-210 92,-7 c 109,-9 183,-29 261,-70 64,-34 151,-120 190,-188 14,-25 257,-547 538,-1160 366,-795 513,-1125 514,-1151 1,-46 -23,-74 -84,-102 -37,-17 -71,-22 -187,-25 -79,-2 -143,-6 -143,-9 0,-3 53,-108 118,-234 L 1625,0 h 827 828 l -117,234 -117,234 -80,4 c -65,3 -94,11 -146,36 -75,36 -157,105 -200,167 -34,49 -910,1898 -910,1921 0,56 155,-80 299,-261 48,-60 348,-462 666,-892 l 578,-783 h 269 268 v 966 c 0,890 1,965 16,962 9,-2 25,-14 35,-28 10,-14 130,-331 266,-705 215,-593 247,-688 247,-740 l 1,-60 -88,-3 c -65,-2 -87,-6 -85,-16 2,-7 32,-94 68,-194 l 65,-182 h 2365 c 2586,0 2412,-4 2536,57 90,44 204,186 204,256 0,31 24,17 70,-43 84,-110 218,-206 364,-259 130,-47 224,-62 376,-62 255,0 413,36 612,138 l 107,55 -25,67 c -14,36 -64,171 -111,299 l -87,232 h -186 -186 l 4,-99 c 7,-159 -22,-229 -110,-266 -46,-19 -78,-19 -146,-2 -107,28 -172,97 -172,184 0,92 58,143 225,199 343,115 500,257 552,497 22,104 13,274 -21,390 -14,48 -26,89 -26,92 0,3 68,5 150,5 93,0 150,4 150,10 0,6 -4,10 -8,10 -5,0 -14,30 -21,67 -8,38 -28,114 -47,170 -146,451 -456,736 -909,834 -118,26 -378,36 -500,20 -348,-46 -612,-208 -799,-489 -116,-173 -175,-335 -221,-597 -29,-162 -47,-227 -74,-272 -21,-34 -95,-93 -116,-93 -7,0 -47,92 -89,204 -64,173 -76,214 -76,265 0,57 2,62 26,71 14,6 59,10 100,10 67,0 75,2 70,18 -3,9 -37,96 -75,192 l -68,175 -2576,5 c -1416,3 -2578,7 -2581,10 -9,9 -266,574 -272,598 l -6,22 H 1359 C 612,3630 0,3626 0,3622 Z m 2798,-399 140,-308 795,-3 c 745,-2 795,-3 802,-20 9,-22 65,-185 65,-189 0,-2 -14,-3 -30,-3 -53,0 -109,-36 -131,-83 -10,-23 -19,-51 -19,-62 0,-11 23,-86 51,-167 l 52,-148 146,-110 c 79,-61 148,-107 152,-103 4,5 37,105 74,223 78,247 85,310 47,372 -24,39 -91,78 -134,78 -15,0 -29,7 -33,18 -9,22 -65,185 -65,189 0,2 526,3 1169,3 h 1168 l 96,-262 c 52,-145 98,-271 102,-281 7,-15 -2,-17 -97,-17 h -104 l -95,93 c -93,90 -178,148 -289,198 -52,22 -68,24 -262,27 -115,2 -208,1 -208,-2 0,-4 230,-631 287,-781 18,-48 20,-50 53,-47 87,9 178,75 217,157 16,34 18,35 77,35 h 61 l 78,-213 c 42,-116 77,-215 77,-219 0,-5 -103,-8 -230,-8 -126,0 -230,-4 -230,-9 0,-5 43,-127 96,-272 53,-145 101,-276 106,-291 l 10,-28 h 191 c 165,0 198,3 232,19 77,36 122,115 132,231 l 6,70 h 102 103 l 101,-270 c 55,-149 101,-275 101,-280 0,-7 -401,-10 -1149,-10 -1085,0 -1149,1 -1156,17 -9,23 -65,186 -65,190 0,2 14,3 30,3 44,0 87,25 106,62 21,40 7,92 -33,130 -39,36 -787,617 -791,614 -6,-7 201,-553 234,-616 58,-111 150,-190 223,-190 28,0 30,-3 64,-105 l 36,-105 h -439 -438 l -36,101 c -20,55 -36,102 -36,105 0,2 15,4 34,4 80,0 128,84 107,188 -6,33 -124,369 -261,748 -180,496 -258,698 -278,723 -16,20 -49,44 -74,55 -40,16 -48,17 -73,5 -16,-8 -38,-27 -49,-42 -21,-28 -21,-33 -24,-958 l -3,-929 h -193 -194 l -593,801 c -325,440 -620,835 -654,877 -130,161 -280,282 -351,282 -16,0 -28,18 -58,86 -21,48 -40,93 -43,100 -4,12 69,14 436,14 h 441 l 46,-91 c 25,-50 44,-92 42,-94 -2,-1 -31,-7 -66,-13 -79,-14 -125,-42 -147,-88 -30,-65 -11,-127 77,-246 l 50,-68 h 364 364 l -7,48 c -8,63 -37,139 -73,195 -57,85 -198,157 -308,157 -59,0 -64,4 -95,66 -44,86 -118,159 -211,204 -136,68 -165,71 -675,68 l -449,-3 559,-1184 c 308,-651 574,-1204 591,-1230 94,-136 280,-251 408,-251 h 40 l 70,-140 70,-140 h -728 -727 l -68,135 c -37,74 -67,137 -67,139 0,2 35,6 78,9 100,7 160,29 216,78 52,46 71,93 63,158 -4,32 -160,381 -507,1136 -276,600 -518,1124 -538,1165 -52,105 -169,224 -272,274 -80,39 -186,66 -261,66 h -46 l -27,59 c -14,32 -42,93 -61,135 l -34,76 h 1253 1253 z m 7052,197 c 258,-32 475,-130 644,-291 159,-150 257,-322 326,-570 l 19,-69 h -97 l -97,1 -35,62 c -76,135 -282,309 -466,393 -144,66 -210,79 -389,79 -183,0 -239,-11 -373,-75 -143,-68 -247,-152 -327,-265 -55,-78 -85,-137 -161,-325 -34,-85 -72,-177 -83,-203 -31,-71 -102,-176 -155,-226 l -46,-45 73,-26 c 158,-58 281,-134 396,-244 218,-210 313,-486 231,-673 -26,-60 -92,-126 -153,-153 -86,-38 -145,-41 -692,-38 l -530,3 -32,90 c -18,50 -33,96 -33,103 0,7 13,12 30,12 42,0 94,23 114,51 37,53 29,81 -240,810 -141,382 -265,711 -275,731 -41,81 -127,148 -190,148 -24,0 -34,19 -97,198 -3,10 86,12 438,10 l 442,-3 39,-100 c 21,-55 39,-101 39,-101 0,-1 -20,-5 -45,-8 -91,-14 -136,-95 -116,-210 6,-34 52,-170 102,-302 l 91,-242 37,10 c 68,19 148,67 189,114 56,62 78,127 118,339 18,100 45,216 59,259 136,417 432,682 837,750 101,17 294,20 408,6 z m -13,-511 c 417,-46 731,-345 784,-743 19,-145 -5,-288 -64,-389 -36,-61 -121,-136 -203,-179 -38,-20 -127,-57 -198,-83 -154,-55 -193,-74 -242,-117 -51,-45 -74,-99 -74,-177 0,-82 25,-135 91,-195 70,-63 143,-89 249,-90 98,0 146,19 198,79 47,53 64,100 71,200 l 6,90 h 105 105 l 83,-223 c 46,-123 81,-229 79,-236 -7,-18 -157,-80 -256,-105 -131,-33 -244,-44 -386,-38 -157,6 -252,29 -384,93 -78,38 -108,60 -181,132 -96,97 -145,179 -178,298 -44,158 -35,305 24,415 38,69 144,166 233,213 41,21 135,61 209,87 74,27 160,63 190,81 98,59 139,141 129,255 -19,203 -216,363 -447,363 -192,0 -326,-100 -391,-290 -16,-48 -23,-100 -28,-200 l -6,-135 h -65 -65 l -87,204 -88,204 35,66 c 122,233 342,394 573,421 37,4 71,8 75,9 4,0 51,-4 104,-10 z M 2935,2592 c 74,-34 140,-104 160,-169 l 6,-23 h -288 c -287,1 -288,1 -304,23 -57,78 -69,102 -69,138 0,54 19,59 250,56 179,-2 199,-4 245,-25 z m 1892,7 c 36,-13 43,-25 43,-73 0,-53 -91,-346 -108,-346 -7,0 -46,26 -87,57 l -73,57 -41,111 c -70,189 -61,205 121,205 64,0 129,-5 145,-11 z m 2507,-3 c 18,-8 45,-29 59,-48 27,-35 547,-1430 547,-1467 0,-26 -18,-31 -110,-31 h -78 l -26,68 c -14,37 -43,114 -65,172 l -39,105 -180,3 -179,2 -5,-97 c -3,-69 -11,-112 -26,-145 -31,-71 -53,-78 -230,-78 h -148 l -72,203 c -40,111 -72,205 -72,210 0,4 104,7 230,7 127,0 230,3 230,8 0,4 -50,143 -111,310 l -112,302 h -122 -122 l -24,-52 c -13,-28 -32,-62 -42,-75 -20,-26 -76,-58 -84,-49 -11,11 -223,597 -223,616 0,19 7,20 104,20 131,0 205,-22 310,-90 89,-58 160,-122 213,-191 l 37,-49 h 193 c 106,0 193,2 193,4 0,2 -27,78 -60,169 -33,90 -60,169 -60,175 0,16 33,15 74,-2 z m 2611,-85 c 34,-15 77,-43 98,-60 52,-46 90,-129 91,-199 1,-107 -46,-149 -245,-218 -259,-90 -395,-180 -487,-323 -34,-52 -55,-107 -76,-203 -4,-16 -10,-28 -14,-28 -4,0 -20,21 -37,48 -74,117 -284,292 -433,361 -28,14 -52,31 -52,38 0,8 13,33 29,56 36,54 75,129 122,242 21,49 41,91 46,92 4,2 46,-87 92,-197 l 84,-200 h 143 144 v 138 c 1,297 73,438 247,482 66,16 180,3 248,-29 z M 5183,1279 c 142,-110 256,-206 254,-212 -6,-20 -279,-21 -316,-3 -58,31 -108,112 -172,283 -39,103 -46,133 -31,133 4,0 123,-90 265,-201 z"
       id="path33"
       inkscape:connector-curvature="0" />
    <path
       d="m 5632,2673 c -34,-7 -88,-66 -124,-136 -33,-64 -289,-827 -282,-839 10,-16 882,-655 923,-676 28,-13 62,-22 92,-22 82,0 107,59 75,175 -15,54 -464,1270 -497,1345 -32,73 -69,118 -113,140 -23,11 -44,19 -47,19 -2,-1 -14,-4 -27,-6 z m 59,-115 c 12,-13 28,-39 36,-58 33,-75 501,-1347 508,-1377 5,-28 4,-33 -12,-33 -28,0 -55,19 -486,337 -221,163 -403,298 -405,299 -5,3 222,687 246,744 20,47 67,110 82,110 5,0 19,-10 31,-22 z"
       id="path35"
       inkscape:connector-curvature="0" />
    <path
       d="m 2716,1998 c 8,-13 523,-709 532,-718 3,-3 2,47 -1,110 -4,63 -12,229 -19,368 l -11,252 h -254 c -201,0 -253,-3 -247,-12 z m 414,-125 c 0,-21 3,-89 7,-150 5,-96 4,-113 -9,-113 -13,0 -228,277 -228,294 0,3 52,6 115,6 h 115 z"
       id="path37"
       inkscape:connector-curvature="0" />
    <path
       d="m 8310,1638 c 11,-29 69,-186 129,-348 l 109,-295 113,-3 c 137,-3 168,10 201,85 52,118 -15,307 -158,447 -92,89 -268,165 -386,166 h -27 z m 208,-95 c 71,-35 167,-124 209,-194 61,-102 78,-235 33,-259 -16,-9 -150,-15 -150,-7 0,2 -38,106 -85,233 -47,126 -85,235 -85,242 0,18 15,15 78,-15 z"
       id="path39"
       inkscape:connector-curvature="0" />
  </g>
</svg>
